<?xml version="1.0" encoding="UTF-8"?>
<svg id="Layer_2" data-name="Layer 2" xmlns="http://www.w3.org/2000/svg" viewBox="0 0 98.76 98.76">
  <defs>
    <style>
      .cls-1 {
        fill: #fff;
      }

      .cls-2 {
        fill: #015156;
      }
    </style>
  </defs>
  <g id="Layer_1-2" data-name="Layer 1">
    <circle class="cls-2" cx="49.38" cy="49.38" r="49.38"/>
    <path class="cls-1" d="M18.02,29.93h9.58c6.2,0,9.28,3.28,9.28,9.9v2.28c0,6.54-2.47,10.49-9.56,10.49h-2.11v14.68h-7.19V29.93ZM25.22,46.78h1.16c2.73,0,3.3-1.53,3.3-4.64v-2.58c0-2.41-.57-3.97-2.96-3.97h-1.51v11.19Z"/>
    <path class="cls-1" d="M47.19,51.05v16.24h-7.17V29.93h9.32c6.26,0,9.35,2.75,9.35,9.28v1.34c0,5.32-2.13,6.91-3.73,7.66,2.32,1.12,3.41,2.83,3.41,8.04,0,3.61-.06,9.06.26,11.02h-6.95c-.46-1.69-.43-6.55-.43-11.32,0-4.2-.48-4.92-3.22-4.92h-.85ZM47.21,45.38h.89c2.4,0,3.38-.76,3.38-4.24v-1.8c0-2.51-.5-3.75-3.15-3.75h-1.12v9.79Z"/>
    <path class="cls-1" d="M81.34,39.92v17.33c0,7.41-3.49,10.59-10.02,10.59s-9.38-3.26-9.38-10.52v-17.6c0-7.21,3.96-10.36,9.72-10.36s9.69,3.1,9.69,10.55ZM69.2,39.11v19.09c0,2.31.79,3.51,2.4,3.51s2.43-1.09,2.43-3.55v-19.11c0-2.33-.65-3.53-2.45-3.53-1.53,0-2.38,1.1-2.38,3.58Z"/>
  </g>
</svg>